REM DIRINDEX 1\2,1\3,1\4
REM DIRNAME folder01,folder02,folder03,folder04
TITLE ""
FILE "102 102_Lesson 12_TOEFL_3900.mp3" MP3
  TRACK 01 AUDIO
    TITLE "4:cjc151_4443"
    INDEX 01 00:00:00
  TRACK 02 AUDIO
    TITLE "0:"
    INDEX 01 00:01:38
  TRACK 03 AUDIO
    TITLE "2:cjc151_4444"
    INDEX 01 00:02:34
  TRACK 04 AUDIO
    TITLE "0:"
    INDEX 01 00:03:43
  TRACK 05 AUDIO
    TITLE "3:cjc151_4445"
    INDEX 01 00:05:24
  TRACK 06 AUDIO
    TITLE "0:"
    INDEX 01 00:08:64
  TRACK 07 AUDIO
    TITLE "2:cjc151_4446"
    INDEX 01 00:10:43
  TRACK 08 AUDIO
    TITLE "0:"
    INDEX 01 00:11:54
  TRACK 09 AUDIO
    TITLE "3:cjc151_4447"
    INDEX 01 00:13:33
  TRACK 10 AUDIO
    TITLE "0:"
    INDEX 01 00:16:71
  TRACK 11 AUDIO
    TITLE "2:cjc151_4448"
    INDEX 01 00:18:66
  TRACK 12 AUDIO
    TITLE "0:"
    INDEX 01 00:20:30
  TRACK 13 AUDIO
    TITLE "3:cjc151_4449"
    INDEX 01 00:22:11
  TRACK 14 AUDIO
    TITLE "0:"
    INDEX 01 00:25:74
  TRACK 15 AUDIO
    TITLE "2:cjc151_4450"
    INDEX 01 00:27:51
  TRACK 16 AUDIO
    TITLE "0:"
    INDEX 01 00:28:49
  TRACK 17 AUDIO
    TITLE "3:cjc151_4451"
    INDEX 01 00:30:28
  TRACK 18 AUDIO
    TITLE "0:"
    INDEX 01 00:34:14
  TRACK 19 AUDIO
    TITLE "2:cjc151_4452"
    INDEX 01 00:35:68
  TRACK 20 AUDIO
    TITLE "0:"
    INDEX 01 00:37:07
  TRACK 21 AUDIO
    TITLE "3:cjc151_4453"
    INDEX 01 00:38:67
  TRACK 22 AUDIO
    TITLE "0:"
    INDEX 01 00:43:39
  TRACK 23 AUDIO
    TITLE "2:cjc151_4454"
    INDEX 01 00:45:18
  TRACK 24 AUDIO
    TITLE "0:"
    INDEX 01 00:46:17
  TRACK 25 AUDIO
    TITLE "3:cjc151_4455"
    INDEX 01 00:47:72
  TRACK 26 AUDIO
    TITLE "0:"
    INDEX 01 00:51:36
  TRACK 27 AUDIO
    TITLE "2:cjc151_4456"
    INDEX 01 00:53:15
  TRACK 28 AUDIO
    TITLE "0:"
    INDEX 01 00:54:38
  TRACK 29 AUDIO
    TITLE "3:cjc151_4457"
    INDEX 01 00:56:16
  TRACK 30 AUDIO
    TITLE "0:"
    INDEX 01 01:00:55
  TRACK 31 AUDIO
    TITLE "2:cjc151_4458"
    INDEX 01 01:02:40
  TRACK 32 AUDIO
    TITLE "0:"
    INDEX 01 01:03:47
  TRACK 33 AUDIO
    TITLE "3:cjc151_4459"
    INDEX 01 01:05:28
  TRACK 34 AUDIO
    TITLE "0:"
    INDEX 01 01:09:52
  TRACK 35 AUDIO
    TITLE "2:cjc151_4460"
    INDEX 01 01:11:31
  TRACK 36 AUDIO
    TITLE "0:"
    INDEX 01 01:12:28
  TRACK 37 AUDIO
    TITLE "3:cjc151_4461"
    INDEX 01 01:14:06
  TRACK 38 AUDIO
    TITLE "0:"
    INDEX 01 01:17:39
  TRACK 39 AUDIO
    TITLE "2:cjc151_4462"
    INDEX 01 01:19:21
  TRACK 40 AUDIO
    TITLE "0:"
    INDEX 01 01:20:42
  TRACK 41 AUDIO
    TITLE "3:cjc151_4463"
    INDEX 01 01:22:19
  TRACK 42 AUDIO
    TITLE "0:"
    INDEX 01 01:25:58
  TRACK 43 AUDIO
    TITLE "2:cjc151_4464"
    INDEX 01 01:27:38
  TRACK 44 AUDIO
    TITLE "0:"
    INDEX 01 01:28:25
  TRACK 45 AUDIO
    TITLE "3:cjc151_4465"
    INDEX 01 01:30:05
  TRACK 46 AUDIO
    TITLE "0:"
    INDEX 01 01:33:72
  TRACK 47 AUDIO
    TITLE "2:cjc151_4466"
    INDEX 01 01:35:53
  TRACK 48 AUDIO
    TITLE "0:"
    INDEX 01 01:37:01
  TRACK 49 AUDIO
    TITLE "3:cjc151_4467"
    INDEX 01 01:38:55
  TRACK 50 AUDIO
    TITLE "0:"
    INDEX 01 01:41:42
  TRACK 51 AUDIO
    TITLE "2:cjc151_4468"
    INDEX 01 01:43:29
  TRACK 52 AUDIO
    TITLE "0:"
    INDEX 01 01:44:38
  TRACK 53 AUDIO
    TITLE "3:cjc151_4469"
    INDEX 01 01:46:18
  TRACK 54 AUDIO
    TITLE "0:"
    INDEX 01 01:49:67
  TRACK 55 AUDIO
    TITLE "2:cjc151_4470"
    INDEX 01 01:51:46
  TRACK 56 AUDIO
    TITLE "0:"
    INDEX 01 01:52:57
  TRACK 57 AUDIO
    TITLE "3:cjc151_4471"
    INDEX 01 01:54:41
  TRACK 58 AUDIO
    TITLE "0:"
    INDEX 01 01:58:11
  TRACK 59 AUDIO
    TITLE "2:cjc151_4472"
    INDEX 01 01:59:65
  TRACK 60 AUDIO
    TITLE "0:"
    INDEX 01 02:01:09
  TRACK 61 AUDIO
    TITLE "3:cjc151_4473"
    INDEX 01 02:02:66
  TRACK 62 AUDIO
    TITLE "0:"
    INDEX 01 02:06:30
  TRACK 63 AUDIO
    TITLE "2:cjc151_4474"
    INDEX 01 02:08:19
  TRACK 64 AUDIO
    TITLE "0:"
    INDEX 01 02:09:26
  TRACK 65 AUDIO
    TITLE "3:cjc151_4475"
    INDEX 01 02:11:06
  TRACK 66 AUDIO
    TITLE "0:"
    INDEX 01 02:14:67
  TRACK 67 AUDIO
    TITLE "2:cjc151_4476"
    INDEX 01 02:16:46
  TRACK 68 AUDIO
    TITLE "0:"
    INDEX 01 02:17:44
  TRACK 69 AUDIO
    TITLE "3:cjc151_4477"
    INDEX 01 02:19:23
  TRACK 70 AUDIO
    TITLE "0:"
    INDEX 01 02:23:03
  TRACK 71 AUDIO
    TITLE "2:cjc151_4478"
    INDEX 01 02:24:57
  TRACK 72 AUDIO
    TITLE "0:"
    INDEX 01 02:25:74
  TRACK 73 AUDIO
    TITLE "3:cjc151_4479"
    INDEX 01 02:27:54
  TRACK 74 AUDIO
    TITLE "0:"
    INDEX 01 02:31:30
  TRACK 75 AUDIO
    TITLE "2:cjc151_4480"
    INDEX 01 02:33:09
  TRACK 76 AUDIO
    TITLE "0:"
    INDEX 01 02:34:30
  TRACK 77 AUDIO
    TITLE "3:cjc151_4481"
    INDEX 01 02:36:12
  TRACK 78 AUDIO
    TITLE "0:"
    INDEX 01 02:40:29
  TRACK 79 AUDIO
    TITLE "2:cjc151_4482"
    INDEX 01 02:42:08
  TRACK 80 AUDIO
    TITLE "0:"
    INDEX 01 02:43:17
  TRACK 81 AUDIO
    TITLE "3:cjc151_4483"
    INDEX 01 02:45:07
  TRACK 82 AUDIO
    TITLE "0:"
    INDEX 01 02:48:42
  TRACK 83 AUDIO
    TITLE "2:cjc151_4484"
    INDEX 01 02:50:21
  TRACK 84 AUDIO
    TITLE "0:"
    INDEX 01 02:51:15
  TRACK 85 AUDIO
    TITLE "3:cjc151_4485"
    INDEX 01 02:52:69
  TRACK 86 AUDIO
    TITLE "0:"
    INDEX 01 02:55:52
  TRACK 87 AUDIO
    TITLE "2:cjc151_4486"
    INDEX 01 02:57:31
  TRACK 88 AUDIO
    TITLE "0:"
    INDEX 01 02:58:41
  TRACK 89 AUDIO
    TITLE "3:cjc151_4487"
    INDEX 01 03:00:18
  TRACK 90 AUDIO
    TITLE "0:"
    INDEX 01 03:03:22
